<svg width="155" height="54" viewBox="0 0 155 54" fill="none" xmlns="http://www.w3.org/2000/svg">
<g clip-path="url(#clip0_141_39)">
<path d="M18.87 35.09C17.66 35.04 16.84 35.01 16.44 35H15.58V34.5C16.1 34.4 16.51 34.28 16.82 34.15C17.13 34.02 17.28 33.9 17.28 33.79V21.05C16.79 21.1 16.22 21.19 15.58 21.31L15.47 20.58C16.14 20.39 16.95 20.23 17.88 20.09C18.81 19.95 19.68 19.88 20.48 19.88C21.52 19.88 22.42 20.01 23.19 20.26C23.96 20.51 24.55 20.88 24.97 21.36C25.39 21.84 25.59 22.4 25.59 23.05C25.59 23.88 25.39 24.6 24.99 25.21C24.59 25.82 24.05 26.26 23.36 26.53C24.02 26.65 24.62 26.92 25.16 27.33C25.7 27.74 26.12 28.25 26.43 28.85C26.74 29.45 26.89 30.11 26.89 30.82C26.89 31.7 26.67 32.46 26.22 33.11C25.77 33.76 25.14 34.27 24.33 34.62C23.52 34.97 22.59 35.15 21.54 35.15C20.98 35.16 20.09 35.14 18.87 35.09ZM19.16 26.5H19.56C22.38 26.5 23.79 25.54 23.79 23.62C23.79 22.77 23.49 22.1 22.88 21.6C22.27 21.1 21.26 20.86 19.84 20.86C19.7 20.86 19.47 20.87 19.16 20.88V26.5ZM19.16 33.78C19.16 33.83 19.2 33.89 19.27 33.96C19.72 34.11 20.4 34.18 21.3 34.18C22.04 34.18 22.69 34.06 23.25 33.81C23.81 33.56 24.23 33.22 24.54 32.77C24.85 32.32 25 31.81 25 31.22C25 30.6 24.86 30 24.57 29.41C24.28 28.82 23.85 28.33 23.26 27.95C22.67 27.57 21.96 27.38 21.1 27.38C20.51 27.38 19.87 27.44 19.17 27.56V33.78H19.16Z" fill="white"/>
<path d="M30.8899 29.26C30.8999 30.08 31.0399 30.84 31.3299 31.53C31.6199 32.22 32.0199 32.78 32.5399 33.2C33.0599 33.62 33.6699 33.83 34.3599 33.83C34.7399 33.83 35.0699 33.79 35.3699 33.72C35.6699 33.65 36.0099 33.5 36.4099 33.27C36.8099 33.04 37.2799 32.69 37.8499 32.23C37.9899 32.31 38.1399 32.47 38.2799 32.71C37.5899 33.47 36.9999 34.03 36.5199 34.4C36.0399 34.77 35.5799 35.02 35.1499 35.15C34.7199 35.28 34.2299 35.34 33.6499 35.34C32.8499 35.34 32.0999 35.11 31.4099 34.66C30.7199 34.21 30.1699 33.57 29.7599 32.74C29.3499 31.91 29.1399 30.97 29.1399 29.9C29.1399 28.84 29.3699 27.84 29.8299 26.9C30.2899 25.96 30.9199 25.22 31.7299 24.66C32.0999 24.4 32.5199 24.18 33.0099 24C33.4999 23.82 33.9399 23.73 34.3399 23.73C35.2899 23.73 36.0699 23.97 36.6699 24.46C37.2699 24.95 37.6999 25.54 37.9599 26.26C38.2199 26.98 38.3499 27.71 38.3499 28.46C38.0999 28.74 37.6699 29 37.0599 29.25H30.8899V29.26ZM35.9799 28.2C36.1499 28.2 36.2699 28.17 36.3299 28.11C36.3899 28.05 36.4199 27.94 36.4199 27.78C36.4199 27.41 36.3499 27.02 36.2199 26.59C36.0899 26.16 35.8399 25.79 35.4799 25.47C35.1199 25.15 34.6299 24.98 33.9999 24.98C33.4699 24.98 32.9899 25.11 32.5599 25.38C32.1299 25.65 31.7799 26.03 31.5099 26.52C31.2399 27.01 31.0499 27.57 30.9499 28.2H35.9799Z" fill="white"/>
<path d="M46.86 34.8C46.69 34.43 46.59 33.94 46.58 33.32C45.92 33.99 45.24 34.5 44.55 34.84C43.86 35.18 43.25 35.35 42.71 35.35C42.3 35.35 41.91 35.26 41.53 35.08C41.15 34.9 40.84 34.62 40.59 34.24C40.34 33.86 40.21 33.39 40.21 32.82C40.21 32.27 40.3 31.79 40.49 31.39C40.68 30.99 40.94 30.63 41.26 30.3C41.55 30.01 41.88 29.76 42.24 29.56C42.6 29.36 43.13 29.15 43.82 28.96C44.51 28.77 45.43 28.59 46.57 28.43V26.78C46.57 26.21 46.43 25.76 46.15 25.43C45.87 25.1 45.39 24.93 44.72 24.93C44.37 24.93 44.03 25 43.71 25.13C43.39 25.26 43.13 25.45 42.94 25.69C42.75 25.93 42.67 26.21 42.7 26.52C42.71 26.61 42.6 26.7 42.37 26.81C42.14 26.92 41.88 27.01 41.57 27.09C41.26 27.17 41.02 27.21 40.84 27.21C40.78 27.21 40.73 27.21 40.71 27.2L40.55 26.74C40.78 26.23 41.18 25.75 41.74 25.29C42.3 24.83 42.93 24.46 43.63 24.18C44.33 23.9 45.01 23.76 45.66 23.76C46.51 23.76 47.17 23.98 47.64 24.43C48.11 24.88 48.34 25.51 48.34 26.31V32.92C48.34 33.53 48.5 33.83 48.81 33.83C49.07 33.83 49.45 33.72 49.96 33.51L50.14 34.04C49.5 34.49 48.96 34.82 48.52 35.03C48.08 35.24 47.74 35.35 47.52 35.35C47.25 35.35 47.04 35.17 46.86 34.8ZM46.58 29.3C45.74 29.43 45.08 29.57 44.59 29.7C44.1 29.83 43.73 29.98 43.48 30.12C43.23 30.26 43.01 30.43 42.82 30.63C42.37 31.11 42.14 31.67 42.14 32.31C42.14 32.69 42.21 33 42.36 33.22C42.51 33.44 42.67 33.6 42.86 33.69C43.05 33.78 43.23 33.82 43.4 33.82C44.37 33.82 45.43 33.32 46.58 32.33V29.3Z" fill="white"/>
<path d="M59.26 33.05C58.37 33.94 57.6 34.55 56.94 34.87C56.28 35.19 55.66 35.35 55.08 35.35C54.24 35.35 53.57 35.08 53.06 34.55C52.55 34.02 52.29 33.08 52.29 31.73V26.67C52.29 26.13 52.26 25.76 52.21 25.57C52.16 25.38 52.04 25.24 51.85 25.18C51.66 25.12 51.31 25.05 50.78 25V24.53C51.33 24.46 51.82 24.37 52.26 24.25C52.7 24.13 53.19 23.97 53.72 23.76L54.05 24.22V31.1C54.05 32.15 54.2 32.89 54.5 33.31C54.8 33.73 55.25 33.95 55.84 33.95C56.36 33.95 56.89 33.79 57.43 33.48C57.97 33.17 58.59 32.65 59.26 31.93V26.67C59.26 26.18 59.22 25.82 59.15 25.6C59.08 25.38 58.93 25.23 58.71 25.15C58.49 25.07 58.13 25.02 57.62 24.99V24.52C58.12 24.46 58.61 24.36 59.09 24.23C59.57 24.1 60.1 23.94 60.67 23.74L61.02 24.2V32.02C61.02 32.54 61.04 32.94 61.08 33.23C61.12 33.52 61.19 33.7 61.29 33.77C61.35 33.81 61.44 33.83 61.55 33.83C61.82 33.83 62.21 33.72 62.71 33.5L62.83 34.03C62.22 34.43 61.69 34.75 61.23 34.99C60.77 35.23 60.45 35.35 60.26 35.35C59.68 35.35 59.35 34.59 59.26 33.05Z" fill="white"/>
<path d="M65.58 34.64C65.2 34.17 65 33.43 65 32.41V25.21H63.49L63.24 24.88L64.15 24.09H65V21.21L66.4 20L66.76 20.29V24.1H70.59L70.93 24.44C70.77 24.67 70.57 24.9 70.33 25.15C70.09 25.4 69.89 25.55 69.74 25.62C69.19 25.35 68.4 25.21 67.36 25.21H66.75V31.4C66.75 32.03 66.79 32.52 66.87 32.87C66.95 33.22 67.08 33.46 67.26 33.61C67.44 33.76 67.69 33.83 68.01 33.83C68.68 33.83 69.54 33.56 70.58 33.03L70.92 33.63C70.19 34.17 69.46 34.59 68.75 34.9C68.04 35.21 67.46 35.36 67.03 35.36C66.45 35.35 65.96 35.12 65.58 34.64Z" fill="white"/>
<path d="M77.66 35.96C77.25 37.06 76.76 37.98 76.2 38.71C75.64 39.44 75.07 39.99 74.47 40.33C73.87 40.67 73.31 40.85 72.76 40.85C72.38 40.85 72.03 40.82 71.72 40.76C71.41 40.7 71.16 40.62 70.99 40.53C70.82 40.44 70.73 40.34 70.73 40.24C70.73 40.18 70.81 40.03 70.98 39.81C71.15 39.59 71.33 39.36 71.55 39.14C71.77 38.92 71.95 38.75 72.11 38.66C72.52 38.9 72.95 39.02 73.4 39.02C73.7 39.02 73.97 38.97 74.22 38.87C74.41 38.81 74.63 38.64 74.89 38.37C75.15 38.1 75.41 37.76 75.67 37.35C75.93 36.94 76.15 36.52 76.33 36.08L76.67 35.27L72.83 25.4C72.76 25.19 72.63 25.03 72.43 24.91C72.23 24.79 71.93 24.69 71.53 24.6V24.1H76.05V24.6C75.53 24.67 75.17 24.74 74.97 24.82C74.77 24.9 74.67 25.01 74.67 25.15C74.67 25.21 74.69 25.29 74.73 25.4L77.61 32.86L80.32 25.4C80.34 25.33 80.36 25.26 80.36 25.2C80.36 25.04 80.26 24.92 80.06 24.84C79.86 24.76 79.5 24.68 78.98 24.6V24.1H82.89V24.6C82.56 24.68 82.32 24.75 82.16 24.81C82 24.87 81.88 24.95 81.8 25.03C81.72 25.11 81.65 25.24 81.59 25.39L77.66 35.96Z" fill="white"/>
<path d="M85.97 34.04C85.97 33.98 85.99 33.92 86.03 33.86C86.23 33.66 86.43 33.46 86.62 33.24C86.81 33.02 86.96 32.83 87.07 32.67C87.12 32.6 87.18 32.56 87.26 32.56C87.31 32.56 87.36 32.57 87.39 32.6C87.42 32.63 87.44 32.64 87.45 32.65C87.53 32.7 87.72 32.88 88.04 33.18C88.38 33.5 88.59 33.68 88.67 33.73C88.78 33.82 88.83 33.91 88.83 33.99C88.83 34.04 88.82 34.08 88.79 34.13C88.76 34.18 88.75 34.21 88.74 34.24C88.67 34.37 88.5 34.59 88.24 34.88C87.98 35.17 87.78 35.37 87.64 35.45C87.59 35.48 87.55 35.5 87.5 35.5C87.45 35.5 87.41 35.48 87.36 35.45C87.2 35.36 86.99 35.2 86.73 34.95C86.47 34.7 86.25 34.48 86.1 34.28C86 34.18 85.97 34.1 85.97 34.04Z" fill="white"/>
<path d="M92.7699 35L92.4299 34.47L100.76 21.4H95.3799C95.1999 21.4 95.0099 21.48 94.8099 21.65C94.6099 21.82 94.4199 22.07 94.2499 22.42C94.0799 22.77 93.9299 23.2 93.8199 23.71L93.1499 23.57L93.4899 20.04C93.8799 20.13 94.2199 20.18 94.4999 20.2C94.7799 20.22 95.1899 20.23 95.7199 20.23H102.94L103.23 20.73L94.9699 33.82H101.1C101.33 33.82 101.52 33.75 101.69 33.61C101.86 33.47 102.01 33.23 102.17 32.89C102.33 32.55 102.51 32.05 102.71 31.4L103.35 31.56C103.27 33.24 103.23 34.38 103.21 34.99H92.7699V35Z" fill="white"/>
<path d="M107.54 34.63C106.8 34.15 106.23 33.49 105.83 32.65C105.43 31.81 105.23 30.86 105.23 29.8C105.23 28.78 105.47 27.8 105.96 26.86C106.45 25.92 107.09 25.17 107.91 24.6C108.73 24.03 109.61 23.74 110.56 23.74C111.52 23.74 112.37 23.98 113.11 24.46C113.85 24.94 114.42 25.6 114.82 26.45C115.22 27.3 115.42 28.25 115.42 29.31C115.42 30.33 115.17 31.31 114.68 32.24C114.19 33.17 113.53 33.92 112.72 34.49C111.91 35.06 111.03 35.35 110.1 35.35C109.13 35.35 108.28 35.11 107.54 34.63ZM107.78 26.23C107.28 27.02 107.04 28.1 107.04 29.46C107.04 30.25 107.22 31 107.57 31.7C107.92 32.4 108.37 32.98 108.9 33.41C109.43 33.84 109.94 34.06 110.42 34.06C111.49 34.06 112.29 33.67 112.81 32.9C113.33 32.13 113.6 31.05 113.6 29.67C113.6 28.87 113.43 28.12 113.1 27.4C112.77 26.68 112.33 26.11 111.81 25.68C111.29 25.25 110.75 25.04 110.22 25.04C109.09 25.04 108.28 25.44 107.78 26.23Z" fill="white"/>
<path d="M124.21 34.5C124.78 34.35 125.2 34.22 125.46 34.11C125.72 34 125.85 33.89 125.85 33.79V27.59C125.85 26.96 125.8 26.48 125.7 26.15C125.6 25.82 125.45 25.6 125.24 25.47C125.03 25.34 124.73 25.28 124.35 25.28C123.81 25.28 123.19 25.55 122.5 26.08C121.81 26.61 121.11 27.45 120.4 28.57V33.78C120.4 33.9 120.55 34.02 120.84 34.14C121.13 34.26 121.53 34.38 122.04 34.49V35H117V34.5C117.59 34.34 118.01 34.21 118.26 34.11C118.51 34.01 118.64 33.9 118.64 33.78V26.67C118.64 26.22 118.61 25.92 118.55 25.74C118.49 25.56 118.36 25.44 118.15 25.36C117.94 25.28 117.56 25.21 117 25.15V24.68C117.91 24.54 118.84 24.23 119.81 23.74L120.22 24.15L120.35 27.07C120.79 26.41 121.29 25.82 121.86 25.31C122.43 24.8 122.99 24.41 123.55 24.14C124.11 23.87 124.59 23.74 125.01 23.74C125.48 23.74 125.91 23.83 126.3 24.02C126.69 24.21 127.01 24.49 127.24 24.88C127.47 25.27 127.6 25.74 127.6 26.3V33.76C127.6 33.87 127.72 33.98 127.96 34.08C128.2 34.18 128.63 34.32 129.24 34.47V35H124.2V34.5H124.21Z" fill="white"/>
<path d="M132.29 29.26C132.3 30.08 132.44 30.84 132.73 31.53C133.02 32.22 133.42 32.78 133.94 33.2C134.46 33.62 135.07 33.83 135.76 33.83C136.14 33.83 136.47 33.79 136.77 33.72C137.07 33.65 137.41 33.5 137.81 33.27C138.21 33.04 138.68 32.69 139.25 32.23C139.39 32.31 139.54 32.47 139.68 32.71C138.99 33.47 138.4 34.03 137.92 34.4C137.44 34.77 136.98 35.02 136.55 35.15C136.12 35.28 135.63 35.34 135.05 35.34C134.25 35.34 133.5 35.11 132.81 34.66C132.12 34.21 131.57 33.57 131.16 32.74C130.75 31.91 130.54 30.97 130.54 29.9C130.54 28.84 130.77 27.84 131.23 26.9C131.69 25.96 132.32 25.22 133.13 24.66C133.5 24.4 133.92 24.18 134.41 24C134.9 23.82 135.34 23.73 135.74 23.73C136.69 23.73 137.47 23.97 138.07 24.46C138.67 24.95 139.1 25.54 139.36 26.26C139.62 26.98 139.75 27.71 139.75 28.46C139.5 28.74 139.07 29 138.46 29.25H132.29V29.26ZM137.38 28.2C137.55 28.2 137.67 28.17 137.73 28.11C137.79 28.05 137.82 27.94 137.82 27.78C137.82 27.41 137.75 27.02 137.62 26.59C137.49 26.16 137.24 25.79 136.88 25.47C136.52 25.15 136.03 24.98 135.4 24.98C134.87 24.98 134.39 25.11 133.96 25.38C133.53 25.65 133.18 26.03 132.91 26.52C132.64 27.01 132.45 27.57 132.35 28.2H137.38Z" fill="white"/>
<path d="M77.25 54C33.93 54 0 42.14 0 27C0 11.86 33.93 0 77.25 0C120.57 0 154.5 11.86 154.5 27C154.5 42.14 120.57 54 77.25 54ZM77.25 2C36.46 2 2 13.45 2 27C2 40.55 36.46 52 77.25 52C118.04 52 152.5 40.55 152.5 27C152.5 13.45 118.04 2 77.25 2Z" fill="#FFFFFE"/>
</g>
<defs>
<clipPath id="clip0_141_39">
<rect width="154.5" height="54" fill="white"/>
</clipPath>
</defs>
</svg>
